<svg width="41" height="40" viewBox="0 0 41 40" fill="none" xmlns="http://www.w3.org/2000/svg">
<path d="M37.897 19.7266L21.4049 3.64844C21.2861 3.53236 21.1451 3.44027 20.9898 3.37743C20.8345 3.3146 20.6681 3.28226 20.5 3.28226C20.3319 3.28226 20.1654 3.3146 20.0102 3.37743C19.8549 3.44027 19.7139 3.53236 19.5951 3.64844L3.10302 19.7266C2.62255 20.1953 2.35028 20.832 2.35028 21.4961C2.35028 22.875 3.4994 23.9961 4.91278 23.9961H6.65048V35.4687C6.65048 36.1602 7.22303 36.7187 7.93173 36.7187H17.9375V27.9687H22.4219V36.7187H33.0683C33.7769 36.7187 34.3495 36.1602 34.3495 35.4687V23.9961H36.0872C36.7679 23.9961 37.4205 23.7344 37.901 23.2617C38.8979 22.2852 38.8979 20.7031 37.897 19.7266Z" fill="#08415C"/>
</svg>
