<svg width="98" height="65" viewBox="0 0 98 65" fill="none" xmlns="http://www.w3.org/2000/svg">
<path fill-rule="evenodd" clip-rule="evenodd" d="M60.1285 48.0079C62.7861 43.3288 64.3037 37.9176 64.3037 32.1519C64.3037 14.4816 50.0491 0.140638 32.4117 0.00102807L60.1285 48.0079ZM55.2338 54.5342C49.3901 60.5593 41.2083 64.3037 32.1519 64.3037C14.3949 64.3037 0 49.9088 0 32.1519C0 17.1016 10.3409 4.46655 24.3052 0.964321L55.2338 54.5342ZM32.1278 8.84623e-06L32.176 8.84202e-06C32.1679 2.94768e-06 32.1599 0 32.1519 0C32.1438 0 32.1358 2.94909e-06 32.1278 8.84623e-06Z" fill="#08415C"/>
<path fill-rule="evenodd" clip-rule="evenodd" d="M55.2338 54.5342C57.1275 52.5817 58.7757 50.3897 60.1285 48.0079L60.8742 49.2995L89.3373 7.57316e-07L97.9999 0L60.8742 64.3037L55.2338 54.5342Z" fill="#08415C"/>
</svg>
