<svg width="inherit" height="inherit" viewBox="0 0 661 552" fill="none" xmlns="http://www.w3.org/2000/svg">
<path fill-rule="evenodd" clip-rule="evenodd" d="M435.573 346.557L447.881 367.798L661 0H636.384L435.573 346.557Z" fill="#BC393C" fill-opacity="0.5"/>
<path fill-rule="evenodd" clip-rule="evenodd" d="M390.887 311.919L423.266 367.798L636.385 0L586.657 4.33161e-06L423.266 281.978L418.985 274.59C411.219 288.213 401.758 300.751 390.887 311.919Z" fill="#BC393C" fill-opacity="0.75"/>
<path fill-rule="evenodd" clip-rule="evenodd" d="M240.198 8.50107L364.825 223.58C367.646 210.801 369.133 197.523 369.133 183.899C369.133 101.651 314.944 32.015 240.198 8.50107ZM344.912 275.033C313.117 330.45 253.219 367.797 184.566 367.797C82.6332 367.797 0 285.463 0 183.899C0 82.3343 82.6332 0 184.566 0C184.893 0 185.22 0.000845823 185.546 0.00253539L344.912 275.033Z" fill="#2B516A"/>
<path fill-rule="evenodd" clip-rule="evenodd" d="M236.426 1.99046L380.925 251.366C389.197 230.477 393.742 207.717 393.742 183.899C393.742 91.5592 325.438 15.1153 236.426 1.99046ZM356.388 294.838L186.351 1.39228C95.1872 12.595 24.6089 90.0345 24.6089 183.899C24.6089 285.463 107.242 367.797 209.175 367.797C269.288 367.797 322.688 339.164 356.388 294.838ZM209.264 2.09207e-05C209.235 6.97409e-06 209.205 0 209.175 0C209.146 0 209.116 6.97925e-06 209.086 2.09362e-05L209.264 2.09207e-05Z" fill="#4C8495"/>
<path fill-rule="evenodd" clip-rule="evenodd" d="M235.276 0.00587956L394.383 274.59C409.639 247.827 418.351 216.877 418.351 183.899C418.351 82.8301 336.522 0.804361 235.276 0.00587956ZM366.285 311.919L188.741 5.51564C108.579 25.5474 49.2178 97.8158 49.2178 183.899C49.2178 285.463 131.851 367.797 233.784 367.797C285.772 367.797 332.74 346.381 366.285 311.919ZM233.869 1.87775e-05C233.84 6.25961e-06 233.812 0 233.784 0C233.756 0 233.728 6.26451e-06 233.7 1.87922e-05L233.869 1.87775e-05Z" fill="#C5FDE3"/>
<path fill-rule="evenodd" clip-rule="evenodd" d="M366.285 311.919L398.664 367.798L611.783 0L562.055 4.33161e-06L398.664 281.978L394.383 274.59C386.617 288.213 377.156 300.751 366.285 311.919Z" fill="#BC393C"/>
<path d="M140.29 462.101C133.314 462.101 127.01 460.597 121.378 457.589C115.81 454.581 111.426 450.453 108.226 445.205C105.09 439.893 103.522 433.941 103.522 427.349C103.522 420.757 105.09 414.837 108.226 409.589C111.426 404.277 115.81 400.117 121.378 397.109C127.01 394.101 133.314 392.597 140.29 392.597C147.266 392.597 153.538 394.101 159.106 397.109C164.674 400.117 169.058 404.277 172.258 409.589C175.458 414.837 177.058 420.757 177.058 427.349C177.058 433.941 175.458 439.893 172.258 445.205C169.058 450.453 164.674 454.581 159.106 457.589C153.538 460.597 147.266 462.101 140.29 462.101ZM140.29 448.853C144.258 448.853 147.842 447.957 151.042 446.165C154.242 444.309 156.738 441.749 158.53 438.485C160.386 435.221 161.314 431.509 161.314 427.349C161.314 423.189 160.386 419.477 158.53 416.213C156.738 412.949 154.242 410.421 151.042 408.629C147.842 406.773 144.258 405.845 140.29 405.845C136.322 405.845 132.738 406.773 129.538 408.629C126.338 410.421 123.81 412.949 121.954 416.213C120.162 419.477 119.266 423.189 119.266 427.349C119.266 431.509 120.162 435.221 121.954 438.485C123.81 441.749 126.338 444.309 129.538 446.165C132.738 447.957 136.322 448.853 140.29 448.853ZM220.906 462.101C214.058 462.101 207.85 460.629 202.282 457.685C196.778 454.677 192.426 450.549 189.226 445.301C186.09 439.989 184.522 434.005 184.522 427.349C184.522 420.693 186.09 414.741 189.226 409.493C192.426 404.181 196.778 400.053 202.282 397.109C207.85 394.101 214.09 392.597 221.002 392.597C226.826 392.597 232.074 393.621 236.746 395.669C241.482 397.717 245.45 400.661 248.65 404.501L238.666 413.717C234.122 408.469 228.49 405.845 221.77 405.845C217.61 405.845 213.898 406.773 210.634 408.629C207.37 410.421 204.81 412.949 202.954 416.213C201.162 419.477 200.266 423.189 200.266 427.349C200.266 431.509 201.162 435.221 202.954 438.485C204.81 441.749 207.37 444.309 210.634 446.165C213.898 447.957 217.61 448.853 221.77 448.853C228.49 448.853 234.122 446.197 238.666 440.885L248.65 450.101C245.45 454.005 241.482 456.981 236.746 459.029C232.01 461.077 226.73 462.101 220.906 462.101ZM272.416 406.421H250.912V393.749H309.472V406.421H287.968V460.949H272.416V406.421ZM358.72 446.549H327.52L321.568 460.949H305.632L335.584 393.749H350.944L380.992 460.949H364.672L358.72 446.549ZM353.824 434.741L343.168 409.013L332.512 434.741H353.824ZM448.916 393.749L419.828 460.949H404.468L375.476 393.749H392.276L412.724 441.749L433.46 393.749H448.916ZM454.527 393.749H470.079V460.949H454.527V393.749ZM518.571 462.101C511.595 462.101 505.291 460.597 499.659 457.589C494.091 454.581 489.707 450.453 486.507 445.205C483.371 439.893 481.803 433.941 481.803 427.349C481.803 420.757 483.371 414.837 486.507 409.589C489.707 404.277 494.091 400.117 499.659 397.109C505.291 394.101 511.595 392.597 518.571 392.597C525.547 392.597 531.819 394.101 537.387 397.109C542.955 400.117 547.339 404.277 550.539 409.589C553.739 414.837 555.339 420.757 555.339 427.349C555.339 433.941 553.739 439.893 550.539 445.205C547.339 450.453 542.955 454.581 537.387 457.589C531.819 460.597 525.547 462.101 518.571 462.101ZM518.571 448.853C522.539 448.853 526.123 447.957 529.323 446.165C532.523 444.309 535.019 441.749 536.811 438.485C538.667 435.221 539.595 431.509 539.595 427.349C539.595 423.189 538.667 419.477 536.811 416.213C535.019 412.949 532.523 410.421 529.323 408.629C526.123 406.773 522.539 405.845 518.571 405.845C514.603 405.845 511.019 406.773 507.819 408.629C504.619 410.421 502.091 412.949 500.235 416.213C498.443 419.477 497.547 423.189 497.547 427.349C497.547 431.509 498.443 435.221 500.235 438.485C502.091 441.749 504.619 444.309 507.819 446.165C511.019 447.957 514.603 448.853 518.571 448.853Z" fill="#C5FDE3"/>
<path d="M177.042 475.968L147.954 543.168H132.594L103.602 475.968H120.402L140.85 523.968L161.586 475.968H177.042Z" fill="#BC393C"/>
<path d="M187.899 475.968H203.451V543.168H187.899V475.968ZM223.239 475.968H238.791V530.496H272.487V543.168H223.239V475.968ZM285.016 475.968H300.568V530.496H334.264V543.168H285.016V475.968ZM398.826 530.688V543.168H346.794V475.968H397.578V488.448H362.25V503.04H393.45V515.136H362.25V530.688H398.826ZM476.672 475.968V543.168H463.904L430.4 502.368V543.168H415.04V475.968H427.904L461.312 516.768V475.968H476.672ZM540.667 528.768H509.467L503.515 543.168H487.579L517.531 475.968H532.891L562.939 543.168H546.619L540.667 528.768ZM535.771 516.96L525.115 491.232L514.459 516.96H535.771Z" fill="#C5FDE3"/>
</svg>
