<svg width="40" height="40" viewBox="0 0 40 40" fill="none" xmlns="http://www.w3.org/2000/svg">
<g clip-path="url(#clip0_119_255)">
<path d="M39.9957 37.3854C39.9957 37.6976 39.82 37.9837 39.4685 38.2439C39.117 38.5041 38.5768 38.7187 37.8478 38.8878C37.1188 39.0569 36.3702 39.213 35.6022 39.3561C34.8341 39.4992 33.8513 39.6098 32.6536 39.6878C31.456 39.7659 30.4146 39.8244 29.5293 39.8634C28.6441 39.9024 27.5051 39.935 26.1121 39.961C24.7192 39.987 23.6648 40 22.9488 40H17.0517L13.8883 39.961L10.4711 39.8634L7.34685 39.6878L4.3983 39.3561L2.15271 38.8878L0.531985 38.2439L0.00476074 37.3854C0.0568323 35.0959 1.4888 33.0732 4.30067 31.3171C7.11253 29.561 10.6794 28.3967 15.0014 27.8244V26.5366C13.6475 25.9382 12.4759 25.0927 11.4865 24C10.4972 22.9073 9.71611 21.626 9.14332 20.1561C8.57053 18.6862 8.15396 17.1122 7.8936 15.4341C7.63325 13.7561 7.50307 11.9415 7.50307 9.99024C7.50307 8.3252 7.82851 6.84228 8.47941 5.54146C9.1303 4.24065 10.0285 3.1935 11.1741 2.4C12.3197 1.6065 13.6345 1.00813 15.1185 0.604878C16.6026 0.201626 18.2298 0 20.0002 0C21.7707 0 23.3979 0.201626 24.882 0.604878C26.366 1.00813 27.6808 1.6065 28.8264 2.4C29.972 3.1935 30.8702 4.24065 31.5211 5.54146C32.172 6.84228 32.4974 8.3252 32.4974 9.99024C32.4974 19.0959 29.998 24.6374 24.9991 26.6146V27.8244C29.3211 28.3967 32.888 29.561 35.6998 31.3171C38.5117 33.0732 39.9437 35.0959 39.9957 37.3854Z" fill="#08415C"/>
</g>
<defs>
<clipPath id="clip0_119_255">
<rect width="40" height="40" fill="white"/>
</clipPath>
</defs>
</svg>
